<svg xmlns="http://www.w3.org/2000/svg" viewBox="0 0 48 48"><defs><style>.cls-1{fill:#bfbfbf;}.cls-2{fill:#fc6459;}.cls-3{fill:#424242;}</style></defs><title>Rocket</title><g id="Rocket"><path class="cls-1" d="M24,35a1,1,0,0,1-1-1V28a1,1,0,0,1,2,0v6A1,1,0,0,1,24,35Z"/><path class="cls-2" d="M27,38a6.37,6.37,0,0,1,1,3.21,5.09,5.09,0,0,1-1.12,3.19L24,48l-2.88-3.6A5,5,0,0,1,20,41.21,6.38,6.38,0,0,1,21,38Z"/><path class="cls-1" d="M26,23H22a1,1,0,0,1,0-2h4a1,1,0,0,1,0,2Z"/><circle class="cls-1" cx="24" cy="16" r="3"/><polygon class="cls-1" points="15 26 7 31 7 34 15 34 15 26"/><polygon class="cls-1" points="33 26 41 31 41 34 33 34 33 26"/><path class="cls-3" d="M41.53,30.15,33.77,25.3,32,21.76V10A10.74,10.74,0,0,0,24.27,0a1.63,1.63,0,0,0-.54,0A10.72,10.72,0,0,0,16,10V21.76L14.23,25.3,6.47,30.15A1,1,0,0,0,6,31v3a1,1,0,0,0,1,1H17.22L18,38.24A1,1,0,0,0,19,39H29a1,1,0,0,0,1-.76L30.78,35H41a1,1,0,0,0,1-1V31A1,1,0,0,0,41.53,30.15ZM14,33H8V31.55l6-3.75ZM24,2.05a8.69,8.69,0,0,1,5.9,7H18.1A8.69,8.69,0,0,1,24,2.05Zm4.22,35H19.78l-.5-2h9.44ZM32,33H16V26.24c2-4.06,2-3.91,2-4.24V11H30c0,12.05-.05,11.14.11,11.45L32,26.24Zm8,0H34V27.8l6,3.75Z"/></g></svg>